<svg id="visual" viewBox="0 0 960 540" width="960" height="540" xmlns="http://www.w3.org/2000/svg" xmlns:xlink="http://www.w3.org/1999/xlink" version="1.1"><rect x="0" y="0" width="960" height="540" fill="#001220"></rect><path d="M0 427L16 428.2C32 429.3 64 431.7 96 416C128 400.3 160 366.7 192 360.8C224 355 256 377 288 394.5C320 412 352 425 384 420.5C416 416 448 394 480 397C512 400 544 428 576 433.8C608 439.7 640 423.3 672 409.5C704 395.7 736 384.3 768 388.8C800 393.3 832 413.7 864 409.8C896 406 928 378 944 364L960 350L960 541L944 541C928 541 896 541 864 541C832 541 800 541 768 541C736 541 704 541 672 541C640 541 608 541 576 541C544 541 512 541 480 541C448 541 416 541 384 541C352 541 320 541 288 541C256 541 224 541 192 541C160 541 128 541 96 541C64 541 32 541 16 541L0 541Z" fill="#691bc2"></path><path d="M0 420L16 415.8C32 411.7 64 403.3 96 396.2C128 389 160 383 192 388C224 393 256 409 288 417.8C320 426.7 352 428.3 384 433.5C416 438.7 448 447.3 480 448.7C512 450 544 444 576 432.3C608 420.7 640 403.3 672 404.7C704 406 736 426 768 438.2C800 450.3 832 454.7 864 458C896 461.3 928 463.7 944 464.8L960 466L960 541L944 541C928 541 896 541 864 541C832 541 800 541 768 541C736 541 704 541 672 541C640 541 608 541 576 541C544 541 512 541 480 541C448 541 416 541 384 541C352 541 320 541 288 541C256 541 224 541 192 541C160 541 128 541 96 541C64 541 32 541 16 541L0 541Z" fill="#782bce"></path><path d="M0 399L16 404.2C32 409.3 64 419.7 96 423.5C128 427.3 160 424.7 192 429C224 433.3 256 444.7 288 447.5C320 450.3 352 444.7 384 443.5C416 442.3 448 445.7 480 437.8C512 430 544 411 576 409.3C608 407.7 640 423.3 672 434.5C704 445.7 736 452.3 768 457.7C800 463 832 467 864 465.5C896 464 928 457 944 453.5L960 450L960 541L944 541C928 541 896 541 864 541C832 541 800 541 768 541C736 541 704 541 672 541C640 541 608 541 576 541C544 541 512 541 480 541C448 541 416 541 384 541C352 541 320 541 288 541C256 541 224 541 192 541C160 541 128 541 96 541C64 541 32 541 16 541L0 541Z" fill="#8639da"></path><path d="M0 422L16 427.3C32 432.7 64 443.3 96 449C128 454.7 160 455.3 192 458.3C224 461.3 256 466.7 288 464C320 461.3 352 450.7 384 445.3C416 440 448 440 480 439C512 438 544 436 576 436.8C608 437.7 640 441.3 672 441.5C704 441.7 736 438.3 768 436.5C800 434.7 832 434.3 864 437.7C896 441 928 448 944 451.5L960 455L960 541L944 541C928 541 896 541 864 541C832 541 800 541 768 541C736 541 704 541 672 541C640 541 608 541 576 541C544 541 512 541 480 541C448 541 416 541 384 541C352 541 320 541 288 541C256 541 224 541 192 541C160 541 128 541 96 541C64 541 32 541 16 541L0 541Z" fill="#9447e6"></path><path d="M0 477L16 476C32 475 64 473 96 477.2C128 481.3 160 491.7 192 494.3C224 497 256 492 288 491C320 490 352 493 384 487.2C416 481.3 448 466.7 480 465.2C512 463.7 544 475.3 576 478.8C608 482.3 640 477.7 672 478.5C704 479.3 736 485.7 768 485.7C800 485.7 832 479.3 864 474.5C896 469.7 928 466.3 944 464.7L960 463L960 541L944 541C928 541 896 541 864 541C832 541 800 541 768 541C736 541 704 541 672 541C640 541 608 541 576 541C544 541 512 541 480 541C448 541 416 541 384 541C352 541 320 541 288 541C256 541 224 541 192 541C160 541 128 541 96 541C64 541 32 541 16 541L0 541Z" fill="#a255f2"></path><path d="M0 492L16 496.2C32 500.3 64 508.7 96 512.5C128 516.3 160 515.7 192 511.8C224 508 256 501 288 501.2C320 501.3 352 508.7 384 509.8C416 511 448 506 480 502C512 498 544 495 576 491.8C608 488.7 640 485.3 672 485.3C704 485.3 736 488.7 768 488.7C800 488.7 832 485.3 864 484.2C896 483 928 484 944 484.5L960 485L960 541L944 541C928 541 896 541 864 541C832 541 800 541 768 541C736 541 704 541 672 541C640 541 608 541 576 541C544 541 512 541 480 541C448 541 416 541 384 541C352 541 320 541 288 541C256 541 224 541 192 541C160 541 128 541 96 541C64 541 32 541 16 541L0 541Z" fill="#b062fe"></path></svg>