<svg id="visual" viewBox="0 0 1280 350" width="1280" height="350" xmlns="http://www.w3.org/2000/svg" xmlns:xlink="http://www.w3.org/1999/xlink" version="1.1"><rect x="0" y="0" width="1280" height="350" fill="#001220"></rect><path d="M0 238L16.3 233C32.7 228 65.3 218 98.2 215.5C131 213 164 218 196.8 219.5C229.7 221 262.3 219 295.2 225.2C328 231.3 361 245.7 393.8 243.7C426.7 241.7 459.3 223.3 492.2 221.3C525 219.3 558 233.7 590.8 236.2C623.7 238.7 656.3 229.3 689.2 230.7C722 232 755 244 787.8 244.5C820.7 245 853.3 234 886.2 231.3C919 228.7 952 234.3 984.8 231.8C1017.7 229.3 1050.3 218.7 1083.2 213.3C1116 208 1149 208 1181.8 215.2C1214.7 222.3 1247.3 236.7 1263.7 243.8L1280 251L1280 351L1263.7 351C1247.3 351 1214.7 351 1181.8 351C1149 351 1116 351 1083.2 351C1050.3 351 1017.7 351 984.8 351C952 351 919 351 886.2 351C853.3 351 820.7 351 787.8 351C755 351 722 351 689.2 351C656.3 351 623.7 351 590.8 351C558 351 525 351 492.2 351C459.3 351 426.7 351 393.8 351C361 351 328 351 295.2 351C262.3 351 229.7 351 196.8 351C164 351 131 351 98.2 351C65.3 351 32.7 351 16.3 351L0 351Z" fill="#b062fe"></path><path d="M0 272L16.3 273C32.7 274 65.3 276 98.2 270.5C131 265 164 252 196.8 249.3C229.7 246.7 262.3 254.3 295.2 259.8C328 265.3 361 268.7 393.8 264.8C426.7 261 459.3 250 492.2 247.2C525 244.3 558 249.7 590.8 255.8C623.7 262 656.3 269 689.2 272.5C722 276 755 276 787.8 270.2C820.7 264.3 853.3 252.7 886.2 251.5C919 250.3 952 259.7 984.8 258.2C1017.7 256.7 1050.3 244.3 1083.2 245.5C1116 246.7 1149 261.3 1181.8 261.7C1214.7 262 1247.3 248 1263.7 241L1280 234L1280 351L1263.7 351C1247.3 351 1214.7 351 1181.8 351C1149 351 1116 351 1083.2 351C1050.3 351 1017.7 351 984.8 351C952 351 919 351 886.2 351C853.3 351 820.7 351 787.8 351C755 351 722 351 689.2 351C656.3 351 623.7 351 590.8 351C558 351 525 351 492.2 351C459.3 351 426.7 351 393.8 351C361 351 328 351 295.2 351C262.3 351 229.7 351 196.8 351C164 351 131 351 98.2 351C65.3 351 32.7 351 16.3 351L0 351Z" fill="#9f51ef"></path><path d="M0 275L16.3 274.2C32.7 273.3 65.3 271.7 98.2 273.5C131 275.3 164 280.7 196.8 281.3C229.7 282 262.3 278 295.2 273.3C328 268.7 361 263.3 393.8 260.8C426.7 258.3 459.3 258.7 492.2 260C525 261.3 558 263.7 590.8 264.3C623.7 265 656.3 264 689.2 269C722 274 755 285 787.8 284.3C820.7 283.7 853.3 271.3 886.2 271.3C919 271.3 952 283.7 984.8 286.5C1017.7 289.3 1050.3 282.7 1083.2 281.3C1116 280 1149 284 1181.8 284.7C1214.7 285.3 1247.3 282.7 1263.7 281.3L1280 280L1280 351L1263.7 351C1247.3 351 1214.7 351 1181.8 351C1149 351 1116 351 1083.2 351C1050.3 351 1017.7 351 984.8 351C952 351 919 351 886.2 351C853.3 351 820.7 351 787.8 351C755 351 722 351 689.2 351C656.3 351 623.7 351 590.8 351C558 351 525 351 492.2 351C459.3 351 426.7 351 393.8 351C361 351 328 351 295.2 351C262.3 351 229.7 351 196.8 351C164 351 131 351 98.2 351C65.3 351 32.7 351 16.3 351L0 351Z" fill="#8d40e0"></path><path d="M0 285L16.3 289.8C32.7 294.7 65.3 304.3 98.2 305.2C131 306 164 298 196.8 293C229.7 288 262.3 286 295.2 289.7C328 293.3 361 302.7 393.8 303C426.7 303.3 459.3 294.7 492.2 290.7C525 286.7 558 287.3 590.8 289.2C623.7 291 656.3 294 689.2 297.3C722 300.7 755 304.3 787.8 307C820.7 309.7 853.3 311.3 886.2 308.8C919 306.3 952 299.7 984.8 297.5C1017.7 295.3 1050.3 297.7 1083.2 295.8C1116 294 1149 288 1181.8 286.7C1214.7 285.3 1247.3 288.7 1263.7 290.3L1280 292L1280 351L1263.7 351C1247.3 351 1214.7 351 1181.8 351C1149 351 1116 351 1083.2 351C1050.3 351 1017.7 351 984.8 351C952 351 919 351 886.2 351C853.3 351 820.7 351 787.8 351C755 351 722 351 689.2 351C656.3 351 623.7 351 590.8 351C558 351 525 351 492.2 351C459.3 351 426.7 351 393.8 351C361 351 328 351 295.2 351C262.3 351 229.7 351 196.8 351C164 351 131 351 98.2 351C65.3 351 32.7 351 16.3 351L0 351Z" fill="#7b2fd1"></path><path d="M0 333L16.3 329.5C32.7 326 65.3 319 98.2 314.7C131 310.3 164 308.7 196.8 311.3C229.7 314 262.3 321 295.2 325C328 329 361 330 393.8 326.5C426.7 323 459.3 315 492.2 310.7C525 306.3 558 305.7 590.8 308.2C623.7 310.7 656.3 316.3 689.2 316.8C722 317.3 755 312.7 787.8 314.5C820.7 316.3 853.3 324.7 886.2 327.7C919 330.7 952 328.3 984.8 325C1017.7 321.7 1050.3 317.3 1083.2 314.8C1116 312.3 1149 311.7 1181.8 312.8C1214.7 314 1247.3 317 1263.7 318.5L1280 320L1280 351L1263.7 351C1247.3 351 1214.7 351 1181.8 351C1149 351 1116 351 1083.2 351C1050.3 351 1017.7 351 984.8 351C952 351 919 351 886.2 351C853.3 351 820.7 351 787.8 351C755 351 722 351 689.2 351C656.3 351 623.7 351 590.8 351C558 351 525 351 492.2 351C459.3 351 426.7 351 393.8 351C361 351 328 351 295.2 351C262.3 351 229.7 351 196.8 351C164 351 131 351 98.2 351C65.3 351 32.7 351 16.3 351L0 351Z" fill="#691bc2"></path></svg>